<svg data-name="logos / cz-logo-default" xmlns="http://www.w3.org/2000/svg" width="32" height="32" viewBox="0 0 32 32"><path d="M8.629 0h14.742c3 0 4.088.312 5.185.9A6.116 6.116 0 0 1 31.1 3.443c.587 1.1.9 2.185.9 5.185v14.743c0 3-.312 4.088-.9 5.185a6.116 6.116 0 0 1-2.543 2.544c-1.1.587-2.185.9-5.185.9H8.629c-3 0-4.088-.312-5.185-.9A6.116 6.116 0 0 1 .9 28.557c-.587-1.1-.9-2.185-.9-5.185V8.629c0-3 .312-4.088.9-5.185A6.116 6.116 0 0 1 3.443.9C4.54.312 5.628 0 8.629 0z" fill="#f2eb3b"/><path data-name="Fill 78" d="M23.993 6.492a1.527 1.527 0 0 1 1.521 1.527v3.791h3.179V8.019a4.709 4.709 0 0 0-4.7-4.709h-3.8v3.182z" fill="#63666a"/><path data-name="Fill 80" d="M25.514 24.001a1.523 1.523 0 0 1-1.521 1.52h-3.8v3.172h3.8a4.7 4.7 0 0 0 4.7-4.692v-3.808h-3.179z" fill="#63666a"/><path data-name="Fill 82" d="M6.485 8.018A1.527 1.527 0 0 1 8.01 6.492h3.8V3.31h-3.8a4.708 4.708 0 0 0-4.7 4.708v3.792h3.175z" fill="#63666a"/><path data-name="Fill 84" d="M8.01 25.522a1.524 1.524 0 0 1-1.523-1.52v-3.809H3.31v3.808a4.7 4.7 0 0 0 4.7 4.692h3.8v-3.171z" fill="#63666a"/><path data-name="Fill 86" d="M14.17 23.614l-6.777-6.783 2.242-2.243 4.535 4.536 8.194-8.2 2.242 2.244z" fill="#63666a"/></svg>